# xmcd
#
# Track frame offsets: 
#        150
#        11056
#        22906
#        33120
#        42875
#        55322
#        69588
#        81180
#        95981
#        107989
#        119766
#        129011
#        141717
#        153540
#        165021
#        175861
#        185765
#        196472
#        206947
#        218967
#        230939
#        242716
#        253158
#        264336
#        273837
#        284677
#        294199
#        306615
#        317369
#        331139
#
# Disc length: 4525 seconds
#
# Revision: 0
# Processed by: cddbd v1.5.2PL0 Copyright (c) Steve Scherf et al.
# Submitted via: ExactAudioCopy v0.99pb3
#
DISCID=cb11ab1e
DTITLE=Wanda Jackson - The Very Best Of The Country Years
DYEAR=2006
DGENRE=Country
TTITLE0=Memory Mountain
TTITLE1=Right Or Wrong
TTITLE2=I Don't Wanta Go
TTITLE3=You Bug Me Bad
TTITLE4=Slippin'
TTITLE5=Fever
TTITLE6=In The Middle Of A Heartache
TTITLE7=Weary Blues From Waitin'
TTITLE8=I'd Be Ashamed
TTITLE9=Silver Threads And Golden Needles
TTITLE10=I Wanna Waltz
TTITLE11=Blue Yodel #6
TTITLE12=Candy Man
TTITLE13=If I Cried Every Time You Hurt Me
TTITLE14=The Box It Came In
TTITLE15=My Big Iron Skillet
TTITLE16=Tears Will Be The Chaser For Your Wine
TTITLE17=Both Sides Of The Line
TTITLE18=You'll Always Have My Love
TTITLE19=This Gun Don't Care (Who It Shoots)
TTITLE20=A Girl Don't Have To Drink To Have Fun
TTITLE21=My Baby Walked Right Out On Me
TTITLE22=Two Seperate Bar Stools
TTITLE23=Who Shot John
TTITLE24=The Man You Could Have Been
TTITLE25=Your Good Girl's Gonna Go Bad
TTITLE26=A Woman Lives For Love
TTITLE27=Fancy Satin Pillows
TTITLE28=Tennessee Women's Prison
TTITLE29=Let's Have A Party (Live)
EXTD=
EXTT0=
EXTT1=
EXTT2=
EXTT3=
EXTT4=
EXTT5=
EXTT6=
EXTT7=
EXTT8=
EXTT9=
EXTT10=
EXTT11=
EXTT12=
EXTT13=
EXTT14=
EXTT15=
EXTT16=
EXTT17=
EXTT18=
EXTT19=
EXTT20=
EXTT21=
EXTT22=
EXTT23=
EXTT24=
EXTT25=
EXTT26=
EXTT27=
EXTT28=
EXTT29=
PLAYORDER=
